<?xml version="1.0" encoding="UTF-8"?>
<svg xmlns="http://www.w3.org/2000/svg" xmlns:xlink="http://www.w3.org/1999/xlink" viewBox="0 0 256 256" width="256px" height="256px">
<g id="surface15082520">
<path style=" stroke:none;fill-rule:nonzero;fill:rgb(100%,100%,100%);fill-opacity:1;" d="M 116.265625 22.398438 C 67.199219 27.734375 27.734375 67.199219 22.398438 115.199219 C 17.066406 165.332031 45.867188 210.132812 89.601562 227.199219 C 92.800781 228.265625 96 226.132812 96 221.867188 L 96 204.800781 C 96 204.800781 91.734375 205.867188 86.398438 205.867188 C 71.464844 205.867188 65.066406 193.066406 64 185.601562 C 62.933594 181.332031 60.800781 178.132812 57.601562 174.933594 C 54.398438 173.867188 53.332031 173.867188 53.332031 172.800781 C 53.332031 170.667969 56.535156 170.667969 57.601562 170.667969 C 64 170.667969 69.332031 178.132812 71.464844 181.332031 C 76.800781 189.867188 83.199219 192 86.398438 192 C 90.667969 192 93.867188 190.933594 96 189.867188 C 97.066406 182.398438 100.265625 174.933594 106.667969 170.667969 C 82.132812 165.332031 64 151.464844 64 128 C 64 116.265625 69.332031 104.535156 76.800781 96 C 75.734375 93.867188 74.667969 88.535156 74.667969 81.066406 C 74.667969 76.800781 74.667969 71.464844 76.800781 67.199219 C 76.800781 65.066406 78.933594 64 80 64 L 81.066406 64 C 86.398438 65.066406 97.066406 68.265625 106.667969 77.867188 C 113.066406 75.734375 120.535156 74.667969 128 74.667969 C 135.464844 74.667969 142.933594 75.734375 149.332031 77.867188 C 158.933594 68.265625 170.667969 65.066406 176 64 L 177.066406 64 C 179.199219 64 180.265625 65.066406 181.332031 67.199219 C 181.332031 71.464844 181.332031 76.800781 181.332031 81.066406 C 181.332031 89.601562 180.265625 93.867188 179.199219 96 C 186.667969 104.535156 192 115.199219 192 128 C 192 151.464844 173.867188 165.332031 149.332031 170.667969 C 155.734375 176 160 185.601562 160 195.199219 L 160 222.933594 C 160 226.132812 163.199219 229.332031 167.464844 228.265625 C 206.933594 212.265625 234.667969 173.867188 234.667969 129.066406 C 234.667969 65.066406 180.265625 14.933594 116.265625 22.398438 Z M 116.265625 22.398438 "/>
</g>
</svg>
